<svg xmlns="http://www.w3.org/2000/svg" xmlns:xlink="http://www.w3.org/1999/xlink" version="1.1" x="0px" y="0px" viewBox="0 0 100 125" enable-background="new 0 0 100 100" xml:space="preserve"><path d="M64.285,50c0,7.89-6.396,14.286-14.285,14.286c-7.891,0-14.286-6.396-14.286-14.286c0-1.512,0.239-2.967,0.675-4.335h-6.032  v18.099c0,3.472,2.814,6.286,6.286,6.286h26.715c3.471,0,6.285-2.814,6.285-6.286V45.665h-6.031  C64.047,47.033,64.285,48.488,64.285,50z"/><path d="M50,58.929c4.93,0,8.928-3.998,8.928-8.929c0-1.802-0.539-3.476-1.457-4.879c-0.063-0.098-0.131-0.194-0.199-0.29  c-0.08-0.11-0.16-0.219-0.244-0.325c-0.068-0.087-0.135-0.176-0.207-0.261c-0.141-0.166-0.287-0.327-0.438-0.482  c-0.072-0.074-0.148-0.144-0.223-0.215c-0.109-0.105-0.223-0.208-0.338-0.307c-0.074-0.064-0.148-0.13-0.227-0.192  c-0.176-0.143-0.359-0.28-0.547-0.41c-0.066-0.046-0.137-0.088-0.205-0.132c-0.148-0.097-0.301-0.189-0.457-0.277  c-0.072-0.042-0.145-0.083-0.219-0.123c-0.215-0.113-0.432-0.22-0.656-0.315c-0.051-0.022-0.104-0.041-0.154-0.061  c-0.191-0.078-0.387-0.149-0.584-0.214c-0.07-0.022-0.141-0.046-0.211-0.067c-0.244-0.073-0.494-0.14-0.746-0.192  c-0.029-0.006-0.059-0.009-0.086-0.015c-0.232-0.045-0.469-0.081-0.709-0.108c-0.068-0.008-0.139-0.016-0.211-0.021  c-0.268-0.024-0.537-0.042-0.811-0.042c-0.274,0-0.545,0.017-0.813,0.042c-0.07,0.006-0.141,0.013-0.211,0.021  c-0.238,0.027-0.476,0.063-0.708,0.108c-0.028,0.006-0.058,0.009-0.086,0.015c-0.253,0.052-0.501,0.119-0.745,0.192  c-0.071,0.021-0.142,0.044-0.212,0.067c-0.198,0.064-0.392,0.136-0.583,0.213c-0.052,0.021-0.105,0.04-0.156,0.062  c-0.223,0.095-0.44,0.202-0.654,0.315c-0.074,0.04-0.148,0.082-0.223,0.124c-0.153,0.087-0.305,0.179-0.452,0.275  c-0.069,0.045-0.14,0.088-0.208,0.134c-0.188,0.129-0.369,0.266-0.545,0.408c-0.078,0.063-0.154,0.129-0.23,0.195  c-0.113,0.098-0.224,0.199-0.332,0.302c-0.076,0.073-0.153,0.145-0.227,0.22c-0.15,0.154-0.296,0.314-0.436,0.479  c-0.072,0.086-0.142,0.177-0.211,0.266c-0.082,0.104-0.161,0.21-0.238,0.318c-0.069,0.098-0.139,0.195-0.204,0.295  c-0.112,0.171-0.219,0.346-0.319,0.524c-0.003,0.006-0.007,0.012-0.01,0.018C41.482,46.949,41.07,48.426,41.07,50  C41.07,54.931,45.068,58.929,50,58.929z"/><path d="M68.928,30.357H65c-0.395,0-0.715,0.32-0.715,0.714V35c0,0.395,0.32,0.714,0.715,0.714h3.928  c0.395,0,0.715-0.319,0.715-0.714v-3.929C69.643,30.677,69.322,30.357,68.928,30.357z"/><path d="M50,5C25.146,5,5,25.147,5,50c0,24.853,20.146,45,45,45c24.852,0,45-20.147,45-45C95,25.147,74.852,5,50,5z M75,66.429  C75,71.162,71.162,75,66.428,75H33.571C28.837,75,25,71.162,25,66.429V33.571C25,28.837,28.837,25,33.571,25h32.856  C71.162,25,75,28.837,75,33.571V66.429z"/><text x="0" y="115" fill="#000000" font-size="5px" font-weight="bold" font-family="'Helvetica Neue', Helvetica, Arial-Unicode, Arial, Sans-serif">Created by TMD</text><text x="0" y="120" fill="#000000" font-size="5px" font-weight="bold" font-family="'Helvetica Neue', Helvetica, Arial-Unicode, Arial, Sans-serif">from the Noun Project</text></svg>